<svg width="200" height="200" viewBox="0 0 200 200" fill="none" xmlns="http://www.w3.org/2000/svg">
<rect width="200" height="200" fill="#E53516"/>
<path d="M51.4717 67.1284C53.8642 65.6726 56.0661 63.9246 58.0266 61.9246C59.6295 60.2987 52.5766 61.0258 50.8763 62.4971C48.931 64.1149 47.118 65.8857 45.4549 67.7925C44.4531 68.9432 49.2733 68.4394 51.4717 67.1284ZM180.475 103.727C181.728 104.483 181.677 100.561 179.152 98.987C170.113 93.3595 145.376 103.172 136.016 104.288C134.258 104.5 133.617 104.054 134.035 102.863C134.831 100.573 137.962 96.3365 138.615 94.8823C139.267 93.4282 139.13 88.711 132.06 88.711C126.284 88.711 120.988 91.3959 117.261 94.7736C113.712 97.7963 106.836 103.784 102.606 103.784C98.2205 103.784 111.056 90.5487 111.765 89.8789C113.672 88.087 107.655 88.5335 105.13 90.4513C104.123 91.2185 100.087 95.535 97.5622 99.7141C90.2688 104.758 83.004 105.926 86.456 101.735C88.2937 99.4966 91.408 96.5025 93.5434 94.1324C96.5317 90.8235 95.9879 88.6423 89.3986 88.6423C80.5766 88.6423 79.6378 89.4094 74.6629 95.243C73.7412 96.325 74.2164 99.0443 75.1724 98.1054C81.1434 92.1974 81.006 92.6783 88.912 92.6783C87.6411 94.0294 85.374 95.3747 81.5327 100.252C78.0978 104.603 80.3477 108.118 85.2137 108.118C87.8987 108.118 91.9175 106.859 95.5871 104.271C95.1463 106.561 96.0565 108.164 99.5201 108.164C103.527 108.164 108.107 105.777 111.909 103.12C111.433 105.983 112.916 108.164 117.158 108.164C120.427 108.164 124.234 106.876 128.161 103.475C128.161 106.074 129.976 108.141 133.394 108.141C141.701 108.141 170.468 97.6932 180.475 103.727ZM119.374 104.414C113.912 104.414 124.852 91.9341 131.968 91.9341C136.239 91.9112 124.641 104.414 119.374 104.414ZM115.046 85.1101C118.065 83.1678 120.891 80.9401 123.484 78.4579C125.087 76.8263 118.034 77.5533 116.334 79.0017C114.002 80.9813 111.803 83.1117 109.75 85.3792C108.748 86.5527 112.842 86.4325 115.046 85.1101ZM71.9264 98.4031C69.7911 100.498 65.1082 103.991 61.0149 103.991C57.9865 103.991 64.0147 98.5634 67.0031 94.1954C69.8655 90.0163 67.5241 88.7682 65.1712 88.7682C59.3433 88.7682 53.6471 92.8558 49.7886 95.7353C50.9564 94.2011 52.7769 92.1688 54.7062 89.6212C55.7767 88.2015 49.3535 88.711 47.7105 90.875C47.1838 91.562 46.6056 92.3291 45.993 93.1649C40.4171 99.8515 31.9901 104.374 27.8568 104.374C25.5669 104.374 24.7139 102.783 26.1394 99.7942C29.5743 92.5581 41.5048 78.8185 47.9795 72.8017C50.9221 70.0481 42.0887 71.1702 40.0621 73.2025C31.1028 82.2248 22.0747 92.3005 19.5272 100.138C18.1189 104.506 19.4184 108.37 24.8055 108.37C29.225 108.37 34.1255 106.177 38.2874 103.578C37.2627 104.975 36.3295 106.223 35.6025 107.259C34.4289 108.851 40.3827 108.273 41.6364 106.687C46.348 100.664 57.6659 93.2565 60.8031 93.2565C63.6655 93.2565 53.8017 100.653 53.8933 105.181C54.0078 111.129 67.7817 107.471 72.4531 101.363C73.1573 100.395 72.5905 97.7619 71.9264 98.4031Z" fill="white"/>
</svg>
