<?xml version="1.0" encoding="utf-8"?>
<!-- Generator: Adobe Illustrator 24.1.1, SVG Export Plug-In . SVG Version: 6.00 Build 0)  -->
<svg version="1.1" id="Calque_1" xmlns="http://www.w3.org/2000/svg" xmlns:xlink="http://www.w3.org/1999/xlink" x="0px" y="0px"
	 viewBox="0 0 979 1133" style="enable-background:new 0 0 979 1133;" xml:space="preserve">
<style type="text/css">
	.st0{fill:#4F4D50;}
	.st1{fill:#E32618;}
	.st2{fill:#2D2B2F;}
	.st3{fill:#FFFFFF;}
</style>
<g>
	<path class="st0" d="M490,3.1c0.7,0,1.3,0,2,0c18.4,11.8,37.7,22.1,56.5,33.1c20.9,12.2,42,24,62.9,36.1
		c25,14.4,49.9,29.1,74.9,43.6c13.9,8.1,27.9,15.9,41.8,23.9c16.3,9.4,32.5,18.9,48.8,28.3c16,9.2,32.1,18.4,48.1,27.6
		c16.1,9.3,32.2,18.8,48.4,28.2c16.2,9.3,32.4,18.5,48.6,27.8c18.7,10.8,37.3,21.6,56,32.4c0,0.7,0,1.3,0,2c-0.6,0.5-1.4,1-1.7,1.6
		c-8.8,15.1-17.5,30.2-26.2,45.3c-19.4,33.7-38.7,67.4-58.1,101c-24.4,42.3-48.8,84.5-73.4,126.7c-1.8,3.1-2.6,6-1.5,9.3
		c-2.5,0.1-3,2.2-4,3.9c-5.7,9.9-11.5,19.9-17.2,29.8c-11.6,20-23.1,40-34.7,60c-12,20.9-24,41.8-36.1,62.7
		c-12.9,22.3-25.8,44.6-38.7,66.9c-13.1,22.7-26.2,45.5-39.4,68.2c-11.7,20.3-23.4,40.6-35.2,60.9c-12,20.7-23.9,41.5-35.9,62.2
		c-11.6,20-23.2,40-34.7,60c-13.1,22.6-26.1,45.2-39.1,67.8c-2.3,4-5.5,7.5-6.1,12.4c-1.2,1.2-3.5,1.1-4,3.2c-0.7,0-1.3,0-2,0
		c-4.8-3.9-10.5-6.3-15.7-9.4c-20.1-11.6-40-23.4-60.1-35c-18.5-10.7-37.2-21.2-55.7-31.9c-22.3-12.9-44.6-26-66.9-38.8
		c-20.9-12.1-42-23.9-62.9-36c-25-14.4-49.9-29.1-74.9-43.6c-13.9-8.1-27.9-15.9-41.8-23.9c-16.3-9.4-32.5-18.9-48.8-28.3
		C49.3,873,35.5,864.9,21.5,857c-6-3.4-11.7-7.5-18.3-9.9c0-0.3,0-0.7,0-1c1.7-0.6,0.6-2.2,1.2-3.2c3.2-5.4,6.4-10.8,9.6-16.3
		c26-45,52-90.1,78-135.1c23-39.7,46-79.3,68.9-119c2.2-3.7,5.4-7.4,3.2-12.4c2.3-0.1,2.9-1.9,3.8-3.5
		c15.1-26.2,30.2-52.4,45.3-78.6c25-43.3,49.9-86.6,75-129.9c22.9-39.7,46-79.3,68.9-119c21.8-37.7,43.4-75.5,65.2-113.2
		c17.9-31.1,36.1-62,53.9-93.2c2.9-5,6.5-9.6,7.9-15.4C486,5.9,488,4.5,490,3.1z"/>
	<path class="st1" d="M977.9,847c-0.3,0-0.5-0.1-0.8-0.2c-0.1-0.3-0.3-0.6-0.4-0.9C932,768.4,887.3,691,842.5,613.5
		c-8.4-14.5-17-28.9-25.5-43.4c-1.1-3.4-0.3-6.2,1.5-9.3c24.6-42.2,49-84.4,73.4-126.7c19.4-33.7,38.7-67.4,58.1-101
		c8.7-15.1,17.4-30.2,26.2-45.3c0.4-0.7,1.2-1.1,1.7-1.6C977.9,473,977.9,660,977.9,847z"/>
	<path class="st2" d="M817,570c8.5,14.5,17.1,28.9,25.5,43.4c44.8,77.4,89.5,154.9,134.2,232.4c0.2,0.3,0.3,0.6,0.4,0.9
		c-8.3,6.1-17.7,10.5-26.5,15.8c-16.5,9.9-33.2,19.4-49.8,29c-13.7,7.9-27.5,15.6-41.2,23.5c-23.5,13.6-46.9,27.3-70.4,40.9
		c-22.8,13.1-45.7,26-68.5,39.1c-22.4,12.9-44.6,26-67,38.9c-25,14.4-50.2,28.7-75.2,43.1c-27,15.6-53.9,31.3-80.8,46.9
		c-0.5,0.3-1.2,0.5-1.8,0.8c0.6-4.8,3.9-8.4,6.1-12.4c12.9-22.7,26-45.2,39.1-67.8c11.6-20,23.2-40,34.7-60
		c12-20.7,23.9-41.5,35.9-62.2c11.7-20.3,23.4-40.6,35.2-60.9c13.1-22.7,26.2-45.5,39.4-68.2c12.9-22.3,25.8-44.6,38.7-66.9
		c12-20.9,24-41.8,36.1-62.7c11.5-20,23.1-40,34.7-60c5.7-9.9,11.5-19.9,17.2-29.8C814,572.3,814.5,570.1,817,570z"/>
	<path class="st2" d="M4.3,285.2c1.6-4.4,6.3-4.9,9.6-6.9c22.3-13.2,45-26,67.5-38.9c24.7-14.3,49.4-28.7,74.1-43
		c18.6-10.7,37.3-21.3,55.9-32c22.4-12.9,44.6-26,67-38.9c16.2-9.4,32.5-18.5,48.8-27.9c18.5-10.7,36.8-21.5,55.2-32.1
		c16.2-9.4,32.5-18.5,48.8-27.9c16.1-9.3,32.1-18.7,48.1-28c1.5-0.9,3.2-1.5,4.8-2.2c-1.4,5.8-5.1,10.4-7.9,15.4
		c-17.9,31.1-36,62.1-53.9,93.2c-21.8,37.7-43.4,75.5-65.2,113.2c-22.9,39.7-46,79.3-68.9,119c-25,43.3-50,86.6-75,129.9
		c-15.1,26.2-30.2,52.4-45.3,78.6c-0.9,1.6-1.6,3.4-3.8,3.5c-0.9-1.2-1.8-2.3-2.6-3.6c-45.2-78.3-90.3-156.5-135.6-234.8
		C18.8,309.4,12.3,296.9,4.3,285.2z"/>
	<path class="st1" d="M4.3,285.2c8,11.7,14.5,24.2,21.6,36.4c45.2,78.2,90.4,156.5,135.6,234.8c0.7,1.3,1.7,2.4,2.6,3.6
		c2.3,5-1,8.6-3.2,12.4C138,612.1,115,651.8,92,691.4c-26,45-52,90-78,135.1c-3.2,5.5-6.4,10.8-9.6,16.3c-0.1-1.7-0.2-3.3-0.2-5
		c0-182.5,0-365,0-547.6C4.1,288.5,4.2,286.8,4.3,285.2z"/>
</g>
<g>
	<g id="XMLID_1_">
		<g>
			<path class="st3" d="M792,720.3c1.4,4.5-0.1,5.6-4.4,5.5c-10.8-0.2-21.7-0.2-32.5,0c-4,0.1-6-1.3-7.1-5.2
				c-6.2-22-12.7-43.9-19-65.8c-2.6-9.1-2.5-9.1-12.1-9.1c-30.2,0-60.3,0-90.5,0c-6.6,0-6.8-0.2-4.9-6.4
				c3.4-11.2,6.9-22.3,10.1-33.5c1.1-3.7,3-5,6.8-4.9c11.5,0.2,23,0.1,34.5,0.1c11,0,22,0,33,0c7.2,0,7.7-0.6,5.7-7.4
				c-12.2-42.4-24.4-84.9-36.7-127.3c-1.3-4.5-1.5-8.6-0.2-13.1c4.1-13.9,8-27.9,11.7-41.9c1-3.7,2.6-5.3,6.5-5.1
				c3.8,0.1,6.5,0.4,7.8,4.9c9.9,34.3,20,68.5,30.1,102.7c17.9,60.6,35.8,121.1,53.7,181.7C787,703.7,789.3,712,792,720.3z"/>
			<path class="st3" d="M663.4,406.2c5.6,0,5.9,0.4,4.4,5.7c-10.2,35.5-20.4,71.1-30.5,106.6c-18.8,66-37.6,132-56.5,197.9
				c-0.6,1.9-1.2,3.8-1.7,5.8c-0.5,2.6-2,3.6-4.6,3.5c-5.5-0.1-11,0-16.5,0l0,0c-5.2,0-10.3-0.2-15.5,0.1c-4.5,0.3-5-1.5-3.8-5.3
				c5.6-18.3,10.9-36.7,16.4-55c18.1-60.8,36.1-121.6,54.2-182.4c7-23.6,14.2-47.2,21.1-70.9c1.3-4.4,3.2-6.3,8-6.1
				C646.7,406.5,655,406.2,663.4,406.2z"/>
			<path class="st3" d="M502.9,411.8c-0.1,102.8-0.1,205.6,0,308.4c0,4.4-1.4,5.8-5.7,5.7c-9.3-0.3-18.7-0.3-28,0
				c-5,0.2-6.1-1.7-6.1-6.4c0.1-51.1,0.1-102.3,0.1-153.4c0-51,0-102,0-152.9c0-6.9,0-6.9,6.9-6.9c9,0,18,0.2,27-0.1
				C501.3,406,502.9,407.3,502.9,411.8z"/>
			<path class="st3" d="M400.6,405.1c4.6,0,6.6,1.1,6.4,6.1c-0.3,11-0.3,22,0,32.9c0.1,4.7-1.7,6-6.1,6c-25.3-0.1-50.6-0.1-75.9-0.1
				c-24.8,0-49.6-0.1-74.4,0.1c-4.7,0-6.5-1.3-6.3-6.2c0.3-11,0.3-22,0-33c-0.1-4.8,1.7-5.9,6.1-5.9
				C300.4,405.2,350.5,405.2,400.6,405.1z"/>
			<path class="st3" d="M355,720.5c0.1,4.1-1.3,5.6-5.5,5.6c-52-0.1-103.9-0.1-155.8,0c-4.6,0-5.7-1.8-5.6-6c0.2-11,0.3-22,0-33
				c-0.1-4.5,1.3-6.1,5.9-6c26,0.2,51.9,0.1,77.9,0.1c25.3,0,50.6,0,75.9,0c7,0,7,0,7.1,6.8C354.9,698.8,354.8,709.7,355,720.5z"/>
			<path class="st3" d="M411.8,566.3c0.6,7.1,0.2,14.3,0.2,21.5c0,35.8,0,71.7,0,107.5c0,8.4-2,16.1-6.4,23.3
				c-3.3,5.4-8.2,8.2-14.5,8.3c-4,0.1-8,0-12,0c-6.7,0-6.7,0-6.7-6.6c0-40.3,0-80.7,0-121c0-1.5-0.1-3,0-4.5c0.5-4.7-1.6-6-6.1-6
				c-26.3,0.1-52.7,0.1-79,0.1c-25.7,0-51.3-0.2-77,0.1c-9.5,0.1-15.4-4.2-19.2-12.4c-2.6-5.6-4.1-11.6-4.1-17.9
				c0-41.2,0-82.3,0-123.5c0-8.6,2.4-16.4,7.6-23.4c3.3-4.4,7.8-6.7,13.3-6.7c4.3,0,8.7,0.2,13-0.1c4-0.2,5.2,1.5,5.2,5.3
				c-0.1,11.7-0.1,23.3-0.1,35c0,27.7,0,55.3,0,83c0,9.7,0,9.7,10,9.7c49,0,98,0.8,147-0.4C405.2,537.3,410.4,551.7,411.8,566.3z"/>
		</g>
	</g>
</g>
</svg>
